OneDof_KneeFl_states
version=1
nRows=34
nColumns=19
inDegrees=yes

# SIMM Motion File Header:
name OneDof_KneeFl_states
datacolumns 19
datarows 34
otherdata 1
range 1.32477566 1.43546311
endheader
time	/jointset/hip_r/hip_flexion_r/value	/jointset/hip_r/hip_flexion_r/speed	/jointset/walker_knee_r/knee_angle_r/value	/jointset/walker_knee_r/knee_angle_r/speed	/jointset/patellofemoral_r/knee_angle_r_beta/value	/jointset/patellofemoral_r/knee_angle_r_beta/speed	/jointset/ankle_r/ankle_angle_r/value	/jointset/ankle_r/ankle_angle_r/speed	/forceset/bflh_r/normalized_tendon_force	/forceset/bfsh_r/normalized_tendon_force	/forceset/gaslat_r/normalized_tendon_force	/forceset/gasmed_r/normalized_tendon_force	/forceset/recfem_r/normalized_tendon_force	/forceset/semimem_r/normalized_tendon_force	/forceset/semiten_r/normalized_tendon_force	/forceset/vasint_r/normalized_tendon_force	/forceset/vaslat_r/normalized_tendon_force	/forceset/vasmed_r/normalized_tendon_force
      1.32477566	     -0.00000000	     -0.00000000	  -1633.22840366	  -2081.10238663	    -28.50521308	    -36.32208872	     -0.00000000	     -0.00000000	      0.01089587	      0.06514007	      0.06463638	      0.04378920	      0.02451531	      0.04417977	      0.03341272	      0.01522695	      0.01349131	      0.01394227
      1.32570651	     -0.00000000	     -0.00000000	  -1635.16515530	  -2080.32511157	    -28.53901577	    -36.30852271	     -0.00000000	     -0.00000000	      0.01089587	      0.06514007	      0.06463638	      0.04378920	      0.02451531	      0.04417977	      0.03341272	      0.01522695	      0.01349131	      0.01394227
      1.32663736	     -0.00000000	     -0.00000000	  -1637.10164645	  -2080.40694199	    -28.57281392	    -36.30995092	     -0.00000000	     -0.00000000	      0.01089587	      0.06514007	      0.06463638	      0.04378920	      0.02451531	      0.04417977	      0.03341272	      0.01522695	      0.01349131	      0.01394227
      1.33129160	     -0.00000000	     -0.00000000	  -1646.78971663	  -2083.38531258	    -28.74190264	    -36.36193329	     -0.00000000	     -0.00000000	      0.01089587	      0.06514007	      0.06463638	      0.04378920	      0.02451531	      0.04417977	      0.03341272	      0.01522695	      0.01349131	      0.01394227
      1.33502482	     -0.00000000	     -0.00000000	  -1654.57620503	  -2088.41008784	    -28.87780250	    -36.44963216	     -0.00000000	     -0.00000000	      0.01089587	      0.06514007	      0.06463638	      0.04378920	      0.02451531	      0.04417977	      0.03341272	      0.01522695	      0.01349131	      0.01394227
      1.33622923	     -0.00000000	     -0.00000000	  -1657.09269306	  -2090.57719507	    -28.92172350	    -36.48745532	     -0.00000000	     -0.00000000	      0.01089587	      0.06514007	      0.06463638	      0.04378920	      0.02451531	      0.04417977	      0.03341272	      0.01522695	      0.01349131	      0.01394227
      1.33743363	     -0.00000000	     -0.00000000	  -1659.61241710	  -2093.63424780	    -28.96570099	    -36.54081096	     -0.00000000	     -0.00000000	      0.01089587	      0.06514007	      0.06463638	      0.04378920	      0.02451531	      0.04417977	      0.03341272	      0.01522695	      0.01349131	      0.01394227
      1.34341199	     -0.00000000	     -0.00000000	  -1672.17804559	  -2110.37635208	    -29.18501258	    -36.83301580	     -0.00000000	     -0.00000000	      0.01089587	      0.06514007	      0.06463638	      0.04378920	      0.02451531	      0.04417977	      0.03341272	      0.01522695	      0.01349131	      0.01394227
      1.34584542	     -0.00000000	     -0.00000000	  -1677.32206621	  -2117.46058039	    -29.27479267	    -36.95665891	     -0.00000000	     -0.00000000	      0.01089587	      0.06514007	      0.06463638	      0.04378920	      0.02451531	      0.04417977	      0.03341272	      0.01522695	      0.01349131	      0.01394227
      1.34827885	     -0.00000000	     -0.00000000	  -1682.48351374	  -2124.51050777	    -29.36487693	    -37.07970335	     -0.00000000	     -0.00000000	      0.01089587	      0.06514007	      0.06463638	      0.04378920	      0.02451531	      0.04417977	      0.03341272	      0.01522695	      0.01349131	      0.01394227
      1.34953560	     -0.00000000	     -0.00000000	  -1685.15546875	  -2127.58834594	    -29.41151134	    -37.13342176	     -0.00000000	     -0.00000000	      0.01089587	      0.06514007	      0.06463638	      0.04378920	      0.02451531	      0.04417977	      0.03341272	      0.01522695	      0.01349131	      0.01394227
      1.35108631	     -0.00000000	     -0.00000000	  -1688.45743839	  -2131.02549582	    -29.46914158	    -37.19341135	     -0.00000000	     -0.00000000	      0.01089587	      0.06514007	      0.06463638	      0.04378920	      0.02451531	      0.04417977	      0.03341272	      0.01522695	      0.01349131	      0.01394227
      1.35356201	     -0.00000000	     -0.00000000	  -1693.73949249	  -2135.97141612	    -29.56133082	    -37.27973394	     -0.00000000	     -0.00000000	      0.01089587	      0.06514007	      0.06463638	      0.04378920	      0.02451531	      0.04417977	      0.03341272	      0.01522695	      0.01349131	      0.01394227
      1.35426903	     -0.00000000	     -0.00000000	  -1695.25020883	  -2137.53090617	    -29.58769779	    -37.30695218	     -0.00000000	     -0.00000000	      0.01089587	      0.06514007	      0.06463638	      0.04378920	      0.02451531	      0.04417977	      0.03341272	      0.01522695	      0.01349131	      0.01394227
      1.35497605	     -0.00000000	     -0.00000000	  -1696.76202172	  -2139.00513011	    -29.61408390	    -37.33268224	     -0.00000000	     -0.00000000	      0.01089587	      0.06514007	      0.06463638	      0.04378920	      0.02451531	      0.04417977	      0.03341272	      0.01522695	      0.01349131	      0.01394227
      1.35851116	     -0.00000000	     -0.00000000	  -1704.33378303	  -2144.11913424	    -29.74623607	    -37.42193845	     -0.00000000	     -0.00000000	      0.01089587	      0.06514007	      0.06463638	      0.04378920	      0.02451531	      0.04417977	      0.03341272	      0.01522695	      0.01349131	      0.01394227
      1.36738354	     -0.00000000	     -0.00000000	  -1723.35795261	  -2139.81383453	    -30.07827046	    -37.34679679	     -0.00000000	     -0.00000000	      0.01089587	      0.06514007	      0.06463638	      0.04378920	      0.02451531	      0.04417977	      0.03341272	      0.01522695	      0.01349131	      0.01394227
      1.37514391	     -0.00000000	     -0.00000000	  -1739.86720782	  -2110.59928313	    -30.36641132	    -36.83690668	     -0.00000000	     -0.00000000	      0.01089587	      0.06514007	      0.06463638	      0.04378920	      0.02451531	      0.04417977	      0.03341272	      0.01522695	      0.01349131	      0.01394227
      1.38290429	     -0.00000000	     -0.00000000	  -1756.05036121	  -2056.39833324	    -30.64886063	    -35.89092165	     -0.00000000	     -0.00000000	      0.01089587	      0.06514007	      0.06463638	      0.04378920	      0.02451531	      0.04417977	      0.03341272	      0.01522695	      0.01349131	      0.01394227
      1.39066466	     -0.00000000	      0.00000000	  -1771.73810416	  -1984.49851496	    -30.92266340	    -34.63603309	     -0.00000000	     -0.00000000	      0.01089587	      0.06514007	      0.06463638	      0.04378920	      0.02451531	      0.04417977	      0.03341272	      0.01522695	      0.01349131	      0.01394227
      1.39754431	     -0.00000000	     -0.00000000	  -1785.14826772	  -1913.29354192	    -31.15671491	    -33.39327186	     -0.00000000	     -0.00000000	      0.01089587	      0.06514007	      0.06463638	      0.04378920	      0.02451531	      0.04417977	      0.03341272	      0.01522695	      0.01349131	      0.01394227
      1.40014439	     -0.00000000	     -0.00000000	  -1790.08700413	  -1885.69880035	    -31.24291212	    -32.91165277	     -0.00000000	     -0.00000000	      0.01089587	      0.06514007	      0.06463638	      0.04378920	      0.02451531	      0.04417977	      0.03341272	      0.01522695	      0.01349131	      0.01394227
      1.40274448	     -0.00000000	     -0.00000000	  -1794.95478735	  -1858.63375684	    -31.32787096	    -32.43927865	     -0.00000000	     -0.00000000	      0.01089587	      0.06514007	      0.06463638	      0.04378920	      0.02451531	      0.04417977	      0.03341272	      0.01522695	      0.01349131	      0.01394227
      1.41077775	     -0.00000000	     -0.00000000	  -1809.55307737	  -1776.29596987	    -31.58265919	    -31.00221316	     -0.00000000	     -0.00000000	      0.01089587	      0.06514007	      0.06463638	      0.04378920	      0.02451531	      0.04417977	      0.03341272	      0.01522695	      0.01349131	      0.01394227
      1.42237342	     -0.00000000	     -0.00000000	  -1829.49394572	  -1664.79989723	    -31.93069300	    -29.05623959	     -0.00000000	     -0.00000000	      0.01089587	      0.06514007	      0.06463638	      0.04378920	      0.02451531	      0.04417977	      0.03341272	      0.01522695	      0.01349131	      0.01394227
      1.42721301	     -0.00000000	     -0.00000000	  -1837.44517511	  -1621.40483077	    -32.06946813	    -28.29885280	     -0.00000000	     -0.00000000	      0.01089587	      0.06514007	      0.06463638	      0.04378920	      0.02451531	      0.04417977	      0.03341272	      0.01522695	      0.01349131	      0.01394227
      1.42993636	     -0.00000000	     -0.00000000	  -1841.82851412	  -1597.77219833	    -32.14597183	    -27.88638556	     -0.00000000	     -0.00000000	      0.01089587	      0.06514007	      0.06463638	      0.04378920	      0.02451531	      0.04417977	      0.03341272	      0.01522695	      0.01349131	      0.01394227
      1.43139550	     -0.00000000	     -0.00000000	  -1844.15080040	  -1585.35211826	    -32.18650337	    -27.66961427	     -0.00000000	     -0.00000000	      0.01089587	      0.06514007	      0.06463638	      0.04378920	      0.02451531	      0.04417977	      0.03341272	      0.01522695	      0.01349131	      0.01394227
      1.43200941	     -0.00000000	     -0.00000000	  -1845.12248236	  -1580.17809094	    -32.20346242	    -27.57931045	     -0.00000000	     -0.00000000	      0.01089587	      0.06514007	      0.06463638	      0.04378920	      0.02451531	      0.04417977	      0.03341272	      0.01522695	      0.01349131	      0.01394227
      1.43225838	     -0.00000000	     -0.00000000	  -1845.51565848	  -1578.35512801	    -32.21032464	    -27.54749375	     -0.00000000	     -0.00000000	      0.01089587	      0.06514007	      0.06463638	      0.04378920	      0.02451531	      0.04417977	      0.03341272	      0.01522695	      0.01349131	      0.01394227
      1.43250734	     -0.00000000	     -0.00000000	  -1845.90839471	  -1576.59106644	    -32.21717918	    -27.51670507	     -0.00000000	     -0.00000000	      0.01089587	      0.06514007	      0.06463638	      0.04378920	      0.02451531	      0.04417977	      0.03341272	      0.01522695	      0.01349131	      0.01394227
      1.43375217	     -0.00000000	     -0.00000000	  -1847.86552733	  -1567.85713707	    -32.25133759	    -27.36426924	     -0.00000000	     -0.00000000	      0.01089587	      0.06514007	      0.06463638	      0.04378920	      0.02451531	      0.04417977	      0.03341272	      0.01522695	      0.01349131	      0.01394227
      1.43503136	     -0.00000000	     -0.00000000	  -1849.86545723	  -1559.03412090	    -32.28624295	    -27.21027856	     -0.00000000	     -0.00000000	      0.01089587	      0.06514007	      0.06463638	      0.04378920	      0.02451531	      0.04417977	      0.03341272	      0.01522695	      0.01349131	      0.01394227
      1.43546311	     -0.00000000	     -0.00000000	  -1850.53797628	  -1556.35182175	    -32.29798062	    -27.16346361	     -0.00000000	     -0.00000000	      0.01089587	      0.06514007	      0.06463638	      0.04378920	      0.02451531	      0.04417977	      0.03341272	      0.01522695	      0.01349131	      0.01394227
